<?xml version="1.0" encoding="UTF-8"?>
<svg version="1.1" xmlns="http://www.w3.org/2000/svg" width="512" height="512">
<path d="M0 0 C168.96 0 337.92 0 512 0 C512 168.96 512 337.92 512 512 C343.04 512 174.08 512 0 512 C0 343.04 0 174.08 0 0 Z " fill="#000000" transform="translate(0,0)"/>
<path d="M0 0 C168.96 0 337.92 0 512 0 C512 168.96 512 337.92 512 512 C343.04 512 174.08 512 0 512 C0 343.04 0 174.08 0 0 Z M37 46 C35.54194992 48.91610015 35.8704057 51.46750132 35.86577892 54.72616196 C35.86342669 55.42903552 35.86107446 56.13190908 35.85865095 56.85608184 C35.85194058 59.23510413 35.85241979 61.61407205 35.85282898 63.99310303 C35.84953162 65.70647079 35.84580633 67.41983776 35.8416875 69.13320374 C35.83164482 73.86015724 35.82794707 78.58709803 35.82529819 83.31406069 C35.82140186 88.40485457 35.81182308 93.49563834 35.80308533 98.58642578 C35.78330213 110.88976732 35.77325246 123.19310971 35.76435754 135.49646318 C35.75997776 141.28558873 35.75461016 147.07471337 35.74936867 152.8638382 C35.7323547 172.10001816 35.71785947 191.33619755 35.71061993 210.57238388 C35.70870993 215.56681062 35.70678961 220.56123735 35.70483398 225.55566406 C35.70435024 226.79705494 35.7038665 228.03844582 35.7033681 229.31745461 C35.69506389 249.43713284 35.6697211 269.55675168 35.63725331 289.67640397 C35.60421501 310.31730397 35.5861741 330.95817376 35.58297569 351.59910035 C35.58080762 363.19451976 35.5720156 374.78985258 35.54651451 386.38524628 C35.52485161 396.25841013 35.51673532 406.13146636 35.52648129 416.00465128 C35.53103878 421.04435576 35.52905587 426.08383799 35.50971985 431.12351227 C35.49217859 435.73512773 35.49301198 440.34635732 35.50861714 444.95797637 C35.51100702 446.62827266 35.50659869 448.29859505 35.49478849 449.9688513 C35.47974435 452.23653047 35.48928853 454.50282911 35.50501537 456.77047348 C35.50403856 458.03082027 35.50306176 459.29116706 35.50205535 460.58970618 C36.49061655 467.36010553 40.83953112 471.07355629 46 475 C48.91610015 476.45805008 51.46750132 476.1295943 54.72616196 476.13422108 C55.7804723 476.13774942 55.7804723 476.13774942 56.85608184 476.14134905 C59.23510413 476.14805942 61.61407205 476.14758021 63.99310303 476.14717102 C65.70647079 476.15046838 67.41983776 476.15419367 69.13320374 476.1583125 C73.86015724 476.16835518 78.58709803 476.17205293 83.31406069 476.17470181 C88.40485457 476.17859814 93.49563834 476.18817692 98.58642578 476.19691467 C110.88976732 476.21669787 123.19310971 476.22674754 135.49646318 476.23564246 C141.28558873 476.24002224 147.07471337 476.24538984 152.8638382 476.25063133 C172.10001816 476.2676453 191.33619755 476.28214053 210.57238388 476.28938007 C215.56681062 476.29129007 220.56123735 476.29321039 225.55566406 476.29516602 C227.41775038 476.29589163 227.41775038 476.29589163 229.31745461 476.2966319 C249.43713284 476.30493611 269.55675168 476.3302789 289.67640397 476.36274669 C310.31730397 476.39578499 330.95817376 476.4138259 351.59910035 476.41702431 C363.19451976 476.41919238 374.78985258 476.4279844 386.38524628 476.45348549 C396.25841013 476.47514839 406.13146636 476.48326468 416.00465128 476.47351871 C421.04435576 476.46896122 426.08383799 476.47094413 431.12351227 476.49028015 C435.73512773 476.50782141 440.34635732 476.50698802 444.95797637 476.49138286 C446.62827266 476.48899298 448.29859505 476.49340131 449.9688513 476.50521151 C452.23653047 476.52025565 454.50282911 476.51071147 456.77047348 476.49498463 C458.03082027 476.49596144 459.29116706 476.49693824 460.58970618 476.49794465 C465.74306983 475.74549046 469.55348044 473.01110099 472.8125 469 C476.21791527 464.3297162 476.1260449 460.78624807 476.13422108 455.05897713 C476.13657331 454.35717262 476.13892554 453.65536812 476.14134905 452.93229681 C476.14803235 450.5689543 476.14758103 448.20566685 476.14717102 445.84231567 C476.15047004 444.13547141 476.15419569 442.42862792 476.1583125 440.72178543 C476.16833587 436.02215377 476.17204982 431.32253488 476.17470181 426.62289405 C476.17860372 421.55803875 476.18818197 416.49319357 476.19691467 411.42834473 C476.21667971 399.1940631 476.22674422 386.95978065 476.23564246 374.72548705 C476.24002429 368.96724793 476.24539128 363.20900973 476.25063133 357.45077133 C476.26764176 338.3157349 476.28213754 319.18069904 476.28938007 300.0456562 C476.29129002 295.07975387 476.29321035 290.11385154 476.29516602 285.14794922 C476.29564976 283.91367057 476.2961335 282.67939193 476.2966319 281.40771089 C476.30493824 261.39809063 476.33028618 241.38853002 476.36274669 221.37893583 C476.39578467 200.8464537 476.41382578 180.31400193 476.41702431 159.78149307 C476.41919217 148.24870152 476.42798131 136.71599704 476.45348549 125.18323135 C476.47514774 115.36501253 476.48326492 105.54690192 476.47351871 95.72866191 C476.46896133 90.71729678 476.47094355 85.70615515 476.49028015 80.6948204 C476.50782182 76.10918994 476.50698772 71.52394754 476.49138286 66.93831347 C476.48899308 65.27749813 476.49340083 63.61665655 476.50521151 61.95588149 C476.52025667 59.70101499 476.51071083 57.44753668 476.49498463 55.19270515 C476.49644984 53.31292447 476.49644984 53.31292447 476.49794465 51.39516842 C475.74355193 46.25144343 473.00385392 42.44063131 469 39.1875 C464.3297162 35.78208473 460.78624807 35.8739551 455.05897713 35.86577892 C454.00627037 35.86225058 454.00627037 35.86225058 452.93229681 35.85865095 C450.5689543 35.85196765 448.20566685 35.85241897 445.84231567 35.85282898 C444.13547141 35.84952996 442.42862792 35.84580431 440.72178543 35.8416875 C436.02215377 35.83166413 431.32253488 35.82795018 426.62289405 35.82529819 C421.55803875 35.82139628 416.49319357 35.81181803 411.42834473 35.80308533 C399.1940631 35.78332029 386.95978065 35.77325578 374.72548705 35.76435754 C368.96724793 35.75997571 363.20900973 35.75460872 357.45077133 35.74936867 C338.3157349 35.73235824 319.18069904 35.71786246 300.0456562 35.71061993 C295.07975387 35.70870998 290.11385154 35.70678965 285.14794922 35.70483398 C283.29653125 35.70410837 283.29653125 35.70410837 281.40771089 35.7033681 C261.39809063 35.69506176 241.38853002 35.66971382 221.37893583 35.63725331 C200.8464537 35.60421533 180.31400193 35.58617422 159.78149307 35.58297569 C148.24870152 35.58080783 136.71599704 35.57201869 125.18323135 35.54651451 C115.36501253 35.52485226 105.54690192 35.51673508 95.72866191 35.52648129 C90.71729678 35.53103867 85.70615515 35.52905645 80.6948204 35.50971985 C76.10918994 35.49217818 71.52394754 35.49301228 66.93831347 35.50861714 C65.27749813 35.51100692 63.61665655 35.50659917 61.95588149 35.49478849 C59.70101499 35.47974333 57.44753668 35.48928917 55.19270515 35.50501537 C53.93951803 35.50403856 52.68633091 35.50306176 51.39516842 35.50205535 C44.63527974 36.49347904 40.92071475 40.84706061 37 46 Z " fill="#FDFDFD" transform="translate(0,0)"/>
<path d="M0 0 C1.98 0 3.96 0 6 0 C6.11214844 1.12921875 6.11214844 1.12921875 6.2265625 2.28125 C8.51377119 20.75830847 16.31252267 39.06893965 31 51 C43.08361357 59.32394203 56.46515287 63.97539551 71 66 C71 67.65 71 69.3 71 71 C69.1128125 71.4021875 69.1128125 71.4021875 67.1875 71.8125 C47.81736807 76.15922834 29.50469751 83.47198647 18.21875 100.72265625 C11.13249192 112.3579317 8.19701903 123.73466542 6 137 C4.02 137 2.04 137 0 137 C-0.17015625 136.14019531 -0.3403125 135.28039062 -0.515625 134.39453125 C-4.72307923 113.87200183 -10.94306599 96.37189387 -28.88476562 84.15698242 C-39.70991759 77.11662204 -52.19069499 73.208425 -65 72 C-65 70.02 -65 68.04 -65 66 C-63.38544922 65.65388672 -63.38544922 65.65388672 -61.73828125 65.30078125 C-41.85740803 60.91711045 -24.13459363 54.32953766 -12.3125 36.8125 C-5.485394 25.55321812 -2.05440229 12.91610327 0 0 Z " fill="#FCFCFC" transform="translate(137,101)"/>
<path d="M0 0 C43.23 0 86.46 0 131 0 C131 9.9 131 19.8 131 30 C87.77 30 44.54 30 0 30 C0 20.1 0 10.2 0 0 Z " fill="#FDFDFD" transform="translate(208,232)"/>
<path d="M0 0 C0.33 0 0.66 0 1 0 C1.14695313 0.73863281 1.29390625 1.47726562 1.4453125 2.23828125 C4.54411242 16.25411765 11.25485985 27.72254485 23.3125 35.8125 C30.11309456 39.88907338 37.20621673 42.57532994 45 44 C45 44.33 45 44.66 45 45 C30.15 45 15.3 45 0 45 C0 30.15 0 15.3 0 0 Z " fill="#000000" transform="translate(0,467)"/>
<path d="M0 0 C0.33 0 0.66 0 1 0 C1 14.85 1 29.7 1 45 C-13.85 45 -28.7 45 -44 45 C-44 44.67 -44 44.34 -44 44 C-43.26136719 43.85304688 -42.52273438 43.70609375 -41.76171875 43.5546875 C-27.74588235 40.45588758 -16.27745515 33.74514015 -8.1875 21.6875 C-4.11092662 14.88690544 -1.42467006 7.79378327 0 0 Z " fill="#000000" transform="translate(511,467)"/>
<path d="M0 0 C14.85 0 29.7 0 45 0 C45 14.85 45 29.7 45 45 C44.67 45 44.34 45 44 45 C43.85304688 44.26136719 43.70609375 43.52273437 43.5546875 42.76171875 C40.45588758 28.74588235 33.74514015 17.27745515 21.6875 9.1875 C14.88690544 5.11092662 7.79378327 2.42467006 0 1 C0 0.67 0 0.34 0 0 Z " fill="#000000" transform="translate(467,0)"/>
<path d="M0 0 C14.85 0 29.7 0 45 0 C45 0.33 45 0.66 45 1 C44.26136719 1.14695313 43.52273437 1.29390625 42.76171875 1.4453125 C28.74588235 4.54411242 17.27745515 11.25485985 9.1875 23.3125 C5.11092662 30.11309456 2.42467006 37.20621673 1 45 C0.67 45 0.34 45 0 45 C0 30.15 0 15.3 0 0 Z " fill="#000000" transform="translate(0,0)"/>
</svg>
